<svg width="19" height="13" viewBox="0 0 19 13" fill="none" xmlns="http://www.w3.org/2000/svg">
<rect width="19" height="13" fill="#DADADA"/>
<path d="M1.5 2.5H6.5" stroke="black" stroke-linecap="round" stroke-linejoin="round"/>
<path d="M2.5 4.5H6.5" stroke="black" stroke-linecap="round" stroke-linejoin="round"/>
<path d="M3.5 6.5H6.5" stroke="black" stroke-linecap="round" stroke-linejoin="round"/>
<path d="M4.5 8.5H6.5" stroke="black" stroke-linecap="round" stroke-linejoin="round"/>
<path fill-rule="evenodd" clip-rule="evenodd" d="M0.5 0C0.223858 0 0 0.223858 0 0.5C0 0.776142 0.223858 1 0.5 1H12.5C12.7761 1 13 1.22386 13 1.5V9.5C13 9.77614 12.7761 10 12.5 10H8.11805C8.35557 10.2654 8.5 10.6158 8.5 11H12.5C13.3284 11 14 10.3284 14 9.5V1.5C14 0.671573 13.3284 0 12.5 0H0.5ZM5.5 11C5.5 10.6158 5.64443 10.2654 5.88195 10H4C3.72386 10 3.5 10.2239 3.5 10.5C3.5 10.7761 3.72386 11 4 11H5.5Z" fill="black"/>
<path fill-rule="evenodd" clip-rule="evenodd" d="M13.6857 4.03576C13.4293 3.9332 13.1383 4.05791 13.0358 4.3143C12.9332 4.57069 13.0579 4.86168 13.3143 4.96423L17.6857 6.71279C17.8755 6.78872 18 6.97258 18 7.17703V9.5C18 9.77614 17.7761 10 17.5 10H17.1181C17.3556 10.2654 17.5 10.6158 17.5 11C18.3284 11 19 10.3284 19 9.5V7.17703C19 6.56367 18.6266 6.01211 18.0571 5.78431L13.6857 4.03576ZM14.5 11C14.5 10.6158 14.6444 10.2654 14.8819 10H12.5C12.2239 10 12 10.2239 12 10.5C12 10.7761 12.2239 11 12.5 11H14.5Z" fill="black"/>
<circle cx="16" cy="11" r="1" stroke="black"/>
<circle cx="7" cy="11" r="1" stroke="black"/>
</svg>
