<svg width="408" height="216" viewBox="0 0 408 216" fill="none" xmlns="http://www.w3.org/2000/svg">
<g filter="url(#filter0_dd_1217_6122)">
<rect x="40.5" y="20.5002" width="327" height="135" rx="24.5" stroke="#D6DCE5"/>
<path d="M112.794 111.036L113.661 105.533L111.73 105.488H102.513L108.919 64.8736C108.938 64.751 109.003 64.6367 109.098 64.5555C109.192 64.4743 109.313 64.4296 109.439 64.4296H124.982C130.142 64.4296 133.702 65.5032 135.562 67.6223C136.433 68.6164 136.988 69.6552 137.257 70.7985C137.538 71.9981 137.544 73.4312 137.268 75.1792L137.248 75.3068V76.4267L138.12 76.9205C138.854 77.3098 139.437 77.7555 139.885 78.2659C140.631 79.1158 141.113 80.1961 141.317 81.4768C141.527 82.794 141.457 84.3614 141.113 86.1358C140.715 88.1771 140.072 89.9549 139.204 91.4096C138.405 92.75 137.388 93.8615 136.18 94.7233C135.027 95.5417 133.656 96.1632 132.107 96.5609C130.605 96.9515 128.894 97.149 127.017 97.149H125.807C124.942 97.149 124.102 97.4604 123.442 98.0189C122.781 98.5889 122.343 99.3672 122.209 100.219L122.118 100.715L120.587 110.415L120.518 110.771C120.499 110.884 120.468 110.941 120.422 110.979C120.38 111.013 120.321 111.036 120.262 111.036H112.794Z" fill="#253B80"/>
<path d="M138.943 75.4383C138.896 75.7348 138.843 76.038 138.784 76.3495C136.734 86.8721 129.721 90.5072 120.765 90.5072H116.205C115.11 90.5072 114.187 91.3025 114.016 92.3827L111.02 111.385C110.909 112.094 111.456 112.734 112.172 112.734H120.26C121.218 112.734 122.031 112.038 122.182 111.094L122.261 110.682L123.784 101.02L123.882 100.49C124.031 99.5422 124.846 98.8463 125.804 98.8463H127.014C134.85 98.8463 140.984 95.6652 142.777 86.4596C143.526 82.614 143.138 79.4031 141.156 77.1448C140.557 76.4638 139.813 75.8988 138.943 75.4383Z" fill="#179BD7"/>
<path d="M136.794 74.5807C136.481 74.4896 136.158 74.4067 135.826 74.3322C135.493 74.2593 135.152 74.1947 134.801 74.1384C133.571 73.9395 132.224 73.8451 130.781 73.8451H118.599C118.298 73.8451 118.014 73.913 117.759 74.0356C117.197 74.3057 116.779 74.8375 116.678 75.4887L114.086 91.9013L114.012 92.3801C114.183 91.2999 115.106 90.5046 116.201 90.5046H120.761C129.717 90.5046 136.73 86.8678 138.779 76.3469C138.84 76.0354 138.892 75.7322 138.938 75.4357C138.42 75.1606 137.858 74.9253 137.253 74.7248C137.104 74.6751 136.95 74.6271 136.794 74.5807Z" fill="#222D65"/>
<path d="M116.684 75.4898C116.785 74.8386 117.203 74.3068 117.765 74.0384C118.022 73.9157 118.305 73.8478 118.605 73.8478H130.787C132.231 73.8478 133.578 73.9423 134.807 74.1411C135.159 74.1974 135.5 74.262 135.833 74.3349C136.164 74.4095 136.487 74.4924 136.801 74.5834C136.956 74.6299 137.11 74.6779 137.261 74.726C137.866 74.9264 138.428 75.1634 138.946 75.4367C139.556 71.5481 138.942 68.9005 136.839 66.503C134.521 63.8637 130.337 62.7338 124.983 62.7338H109.44C108.346 62.7338 107.414 63.529 107.244 64.6109L100.771 105.643C100.643 106.454 101.269 107.187 102.087 107.187H111.684L116.684 75.4898Z" fill="#253B80"/>
<path fill-rule="evenodd" clip-rule="evenodd" d="M177.482 73.4593H166.101C165.322 73.4593 164.66 74.0253 164.538 74.7938L159.935 103.975C159.844 104.551 160.29 105.07 160.874 105.07H166.307C167.086 105.07 167.749 104.504 167.87 103.734L169.112 95.8632C169.231 95.0924 169.895 94.5272 170.672 94.5272H174.275C181.772 94.5272 186.099 90.8997 187.229 83.7115C187.738 80.5667 187.251 78.0957 185.778 76.3646C184.16 74.465 181.291 73.4593 177.482 73.4593ZM178.795 84.1173C178.173 88.2007 175.052 88.2007 172.035 88.2007H170.318L171.523 80.5744C171.594 80.1139 171.994 79.7743 172.46 79.7743H173.247C175.302 79.7743 177.241 79.7743 178.243 80.9455C178.84 81.6447 179.023 82.6827 178.795 84.1173ZM211.502 83.9864H206.052C205.588 83.9864 205.187 84.3259 205.115 84.7872L204.874 86.3111L204.493 85.759C203.313 84.0464 200.682 83.4743 198.056 83.4743C192.033 83.4743 186.89 88.0352 185.888 94.4333C185.367 97.6243 186.107 100.676 187.918 102.804C189.579 104.761 191.955 105.576 194.783 105.576C199.635 105.576 202.326 102.456 202.326 102.456L202.083 103.971C201.992 104.55 202.437 105.069 203.018 105.069H207.928C208.708 105.069 209.367 104.503 209.49 103.733L212.436 85.0813C212.529 84.5077 212.085 83.9864 211.502 83.9864ZM203.905 94.5927C203.379 97.7059 200.908 99.7958 197.757 99.7958C196.174 99.7958 194.909 99.2883 194.097 98.3266C193.292 97.3717 192.985 96.0119 193.242 94.498C193.733 91.411 196.246 89.2533 199.349 89.2533C200.896 89.2533 202.155 89.7669 202.983 90.7372C203.814 91.7174 204.143 93.085 203.905 94.5927ZM235.052 83.9856H240.529C241.296 83.9856 241.743 84.8457 241.307 85.4748L223.092 111.765C222.797 112.191 222.311 112.444 221.792 112.444H216.322C215.552 112.444 215.102 111.577 215.548 110.946L221.22 102.941L215.187 85.24C214.979 84.6247 215.433 83.9856 216.088 83.9856H221.469C222.168 83.9856 222.785 84.4445 222.987 85.1137L226.188 95.8047L233.742 84.6794C234.038 84.2451 234.529 83.9856 235.052 83.9856Z" fill="#253B80"/>
<path fill-rule="evenodd" clip-rule="evenodd" d="M294.434 103.972L299.104 74.2576C299.176 73.7963 299.576 73.4567 300.04 73.4552H305.298C305.879 73.4552 306.325 73.9757 306.233 74.5517L301.627 103.731C301.507 104.501 300.845 105.067 300.065 105.067H295.369C294.788 105.067 294.342 104.548 294.434 103.972ZM258.663 73.4568H247.28C246.503 73.4568 245.841 74.0227 245.719 74.7912L241.116 103.972C241.024 104.548 241.47 105.067 242.052 105.067H247.892C248.435 105.067 248.899 104.671 248.984 104.132L250.29 95.8606C250.41 95.0899 251.074 94.5247 251.851 94.5247H255.452C262.951 94.5247 267.277 90.8971 268.408 83.7089C268.918 80.5641 268.428 78.0931 266.955 76.3621C265.339 74.4624 262.472 73.4568 258.663 73.4568ZM259.976 84.1147C259.355 88.1981 256.235 88.1981 253.216 88.1981H251.5L252.707 80.5718C252.778 80.1113 253.174 79.7717 253.642 79.7717H254.429C256.483 79.7717 258.423 79.7717 259.424 80.9429C260.022 81.6421 260.204 82.6801 259.976 84.1147ZM292.68 83.9838H287.234C286.766 83.9838 286.368 84.3234 286.298 84.7846L286.057 86.3085L285.674 85.7564C284.495 84.0438 281.865 83.4717 279.239 83.4717C273.216 83.4717 268.074 88.0326 267.072 94.4307C266.553 97.6217 267.29 100.673 269.101 102.802C270.765 104.758 273.139 105.574 275.966 105.574C280.818 105.574 283.509 102.454 283.509 102.454L283.266 103.968C283.175 104.547 283.621 105.066 284.205 105.066H289.112C289.889 105.066 290.552 104.5 290.673 103.73L293.62 85.0788C293.71 84.5051 293.265 83.9838 292.68 83.9838ZM285.084 94.5901C284.561 97.7033 282.086 99.7932 278.934 99.7932C277.355 99.7932 276.087 99.2857 275.275 98.324C274.469 97.3691 274.167 96.0093 274.42 94.4954C274.914 91.4084 277.423 89.2507 280.527 89.2507C282.075 89.2507 283.333 89.7643 284.162 90.7346C284.995 91.7148 285.325 93.0824 285.084 94.5901Z" fill="#179BD7"/>
</g>
<defs>
<filter id="filter0_dd_1217_6122" x="0" y="0.000244141" width="408" height="216" filterUnits="userSpaceOnUse" color-interpolation-filters="sRGB">
<feFlood flood-opacity="0" result="BackgroundImageFix"/>
<feColorMatrix in="SourceAlpha" type="matrix" values="0 0 0 0 0 0 0 0 0 0 0 0 0 0 0 0 0 0 127 0" result="hardAlpha"/>
<feOffset dy="2"/>
<feGaussianBlur stdDeviation="10"/>
<feColorMatrix type="matrix" values="0 0 0 0 0.717647 0 0 0 0 0.717647 0 0 0 0 0.717647 0 0 0 0.08 0"/>
<feBlend mode="normal" in2="BackgroundImageFix" result="effect1_dropShadow_1217_6122"/>
<feColorMatrix in="SourceAlpha" type="matrix" values="0 0 0 0 0 0 0 0 0 0 0 0 0 0 0 0 0 0 127 0" result="hardAlpha"/>
<feOffset dy="20"/>
<feGaussianBlur stdDeviation="20"/>
<feColorMatrix type="matrix" values="0 0 0 0 0.717647 0 0 0 0 0.717647 0 0 0 0 0.717647 0 0 0 0.08 0"/>
<feBlend mode="normal" in2="effect1_dropShadow_1217_6122" result="effect2_dropShadow_1217_6122"/>
<feBlend mode="normal" in="SourceGraphic" in2="effect2_dropShadow_1217_6122" result="shape"/>
</filter>
</defs>
</svg>
