<svg width="408" height="216" viewBox="0 0 408 216" fill="none" xmlns="http://www.w3.org/2000/svg">
<g filter="url(#filter0_dd_1217_4371)">
<rect x="40.5" y="20.5002" width="327" height="135" rx="24.5" stroke="#D6DCE5"/>
<path d="M332.433 86.5684H328.343C327.434 86.5684 326.866 86.0003 326.866 85.205C326.866 84.4096 327.547 83.9552 328.343 83.9552H335.728L337.432 80.2058H328.343C324.593 80.2058 322.434 82.4782 322.434 85.4322C322.434 88.6135 324.48 90.4313 327.774 90.4313H331.865C332.774 90.4313 333.342 90.9994 333.342 91.7947C333.342 92.5901 332.774 93.1582 331.865 93.1582H323.003V96.9075H331.865C335.614 96.9075 337.773 94.7488 337.773 91.5675C337.773 88.3862 335.841 86.5684 332.433 86.5684ZM316.186 86.5684H312.095C311.186 86.5684 310.618 86.0003 310.618 85.205C310.618 84.4096 311.3 83.9552 312.095 83.9552H319.48L321.185 80.2058H312.095C308.346 80.2058 306.187 82.4782 306.187 85.4322C306.187 88.6135 308.232 90.4313 311.527 90.4313H315.617C316.526 90.4313 317.094 90.9994 317.094 91.7947C317.094 92.5901 316.526 93.1582 315.617 93.1582H306.755V96.9075H315.617C319.367 96.9075 321.526 94.7488 321.526 91.5675C321.526 88.3862 319.594 86.5684 316.186 86.5684ZM290.281 96.7939H304.256V93.0445H294.712V90.3177H304.029V86.5684H294.712V83.9552H304.256V80.2058H290.281V96.7939ZM281.532 87.2501H276.874V83.9552H281.532C282.896 83.9552 283.577 84.7505 283.577 85.6594C283.464 86.5684 282.782 87.2501 281.532 87.2501ZM288.008 85.5458C288.008 82.3645 285.736 80.2058 282.1 80.2058H272.557V96.7939H276.988V90.9994H278.578L283.577 96.7939H289.031L283.577 90.7722C286.304 90.2041 288.008 88.159 288.008 85.5458ZM264.149 87.5909H259.377V83.9552H264.149C265.512 83.9552 266.194 84.7505 266.194 85.773C266.08 86.7956 265.399 87.5909 264.149 87.5909ZM264.603 80.2058H254.946V96.7939H259.377V91.3403H264.49C268.239 91.3403 270.511 88.9543 270.511 85.773C270.511 82.4782 268.239 80.2058 264.603 80.2058ZM254.151 80.2058H248.47L244.152 85.205L239.835 80.2058H234.04L241.312 88.3862L233.927 96.7939H239.608L244.039 91.5675L248.583 96.7939H254.378L246.879 88.2726L254.151 80.2058ZM219.27 96.7939H233.245V93.0445H223.701V90.3177H233.018V86.5684H223.701V83.9552H233.245V80.2058H219.27V96.7939ZM203.705 90.3177L196.888 80.2058H191.32V96.7939H195.751V86.2275L202.682 96.7939H208.022V80.2058H203.705V90.3177ZM177.914 89.7496L180.186 84.1824L182.458 89.7496H177.914ZM177.459 80.2058L170.188 96.7939H175.073L176.437 93.3854H184.163L185.64 96.7939H190.639L183.14 80.2058H177.459ZM162.916 88.6135V88.2726C162.916 85.773 164.28 84.0688 167.12 84.0688H172.119V80.2058H166.779C161.326 80.2058 158.485 83.7279 158.485 88.2726V88.6135C158.485 93.7262 161.666 96.6803 166.552 96.6803H168.029L169.847 92.9309H167.234C164.62 93.0445 162.916 91.5675 162.916 88.6135ZM151.782 80.2058V96.7939H156.213V80.2058H151.782ZM142.92 87.2501H138.261V83.9552H142.92C144.283 83.9552 144.965 84.7505 144.965 85.6594C144.965 86.5684 144.283 87.2501 142.92 87.2501ZM149.396 85.5458C149.396 82.3645 147.123 80.2058 143.488 80.2058H133.944V96.7939H138.375V90.9994H139.966L144.965 96.7939H150.532L145.078 90.7722C147.805 90.2041 149.396 88.159 149.396 85.5458ZM117.015 96.7939H130.99V93.0445H121.446V90.3177H130.763V86.5684H121.446V83.9552H130.99V80.2058H117.015V96.7939ZM102.926 90.6586L99.177 80.2058H92.2464V96.7939H96.5638V84.8641L100.881 96.7939H104.858L109.289 84.8641V96.7939H113.606V80.2058H106.676L102.926 90.6586ZM78.8396 89.7496L81.1119 84.1824L83.3843 89.7496H78.8396ZM78.2715 80.2058L71 96.7939H75.8855L77.2489 93.3854H84.9749L86.4519 96.7939H91.4511L84.066 80.2058H78.2715Z" fill="#006FCF"/>
</g>
<defs>
<filter id="filter0_dd_1217_4371" x="0" y="0.000244141" width="408" height="216" filterUnits="userSpaceOnUse" color-interpolation-filters="sRGB">
<feFlood flood-opacity="0" result="BackgroundImageFix"/>
<feColorMatrix in="SourceAlpha" type="matrix" values="0 0 0 0 0 0 0 0 0 0 0 0 0 0 0 0 0 0 127 0" result="hardAlpha"/>
<feOffset dy="2"/>
<feGaussianBlur stdDeviation="10"/>
<feColorMatrix type="matrix" values="0 0 0 0 0.717647 0 0 0 0 0.717647 0 0 0 0 0.717647 0 0 0 0.08 0"/>
<feBlend mode="normal" in2="BackgroundImageFix" result="effect1_dropShadow_1217_4371"/>
<feColorMatrix in="SourceAlpha" type="matrix" values="0 0 0 0 0 0 0 0 0 0 0 0 0 0 0 0 0 0 127 0" result="hardAlpha"/>
<feOffset dy="20"/>
<feGaussianBlur stdDeviation="20"/>
<feColorMatrix type="matrix" values="0 0 0 0 0.717647 0 0 0 0 0.717647 0 0 0 0 0.717647 0 0 0 0.08 0"/>
<feBlend mode="normal" in2="effect1_dropShadow_1217_4371" result="effect2_dropShadow_1217_4371"/>
<feBlend mode="normal" in="SourceGraphic" in2="effect2_dropShadow_1217_4371" result="shape"/>
</filter>
</defs>
</svg>
