<svg width="408" height="216" viewBox="0 0 408 216" fill="none" xmlns="http://www.w3.org/2000/svg">
<g filter="url(#filter0_dd_1217_4401)">
<rect x="40.5" y="20.5002" width="327" height="135" rx="24.5" stroke="#D6DCE5"/>
<path d="M188.945 96.2395V86.2315C188.945 82.3986 186.603 79.8966 182.611 79.8966C180.588 79.8966 178.458 80.5886 176.915 82.718C175.743 80.9081 174.093 79.8966 171.591 79.8966C169.941 79.8966 168.237 80.3757 166.906 82.2389V80.216H163.446V96.2395H166.96V87.4026C166.96 84.5812 168.45 83.2504 170.793 83.2504C173.135 83.2504 174.306 84.7409 174.306 87.4026V96.2395H177.819V87.4026C177.819 84.5812 179.47 83.2504 181.652 83.2504C183.995 83.2504 185.166 84.7409 185.166 87.4026V96.2395H188.945ZM240.849 80.216H235.153V75.3717H231.639V80.216H228.445V83.41H231.639V90.7564C231.639 94.4295 233.13 96.6121 237.122 96.6121C238.613 96.6121 240.316 96.133 241.434 95.441L240.423 92.4598C239.411 93.1519 238.24 93.3116 237.442 93.3116C235.791 93.3116 235.099 92.3001 235.099 90.6499V83.4633H240.795V80.216H240.849ZM270.5 79.8966C268.477 79.8966 267.146 80.9081 266.348 82.2389V80.216H262.834V96.2395H266.348V87.2429C266.348 84.5812 267.519 83.0906 269.702 83.0906C270.394 83.0906 271.192 83.2503 271.884 83.41L272.896 80.0563C272.204 79.8966 271.192 79.8966 270.5 79.8966ZM225.624 81.5469C223.973 80.3757 221.631 79.8966 219.129 79.8966C215.137 79.8966 212.475 81.9195 212.475 85.0603C212.475 87.722 214.498 89.2126 217.958 89.7449L219.608 89.9046C221.418 90.224 222.43 90.7564 222.43 91.5549C222.43 92.726 221.099 93.5778 218.757 93.5778C216.414 93.5778 214.604 92.726 213.433 91.9275L211.783 94.5892C213.593 95.9201 216.095 96.6121 218.597 96.6121C223.281 96.6121 225.943 94.4295 225.943 91.4484C225.943 88.627 223.761 87.1364 220.46 86.6041L218.81 86.4444C217.319 86.2847 216.148 85.9653 216.148 84.9538C216.148 83.7827 217.319 83.1439 219.129 83.1439C221.152 83.1439 223.122 83.9956 224.133 84.4747L225.624 81.5469ZM318.73 79.8966C316.707 79.8966 315.376 80.9081 314.578 82.2389V80.216H311.064V96.2395H314.578V87.2429C314.578 84.5812 315.749 83.0906 317.932 83.0906C318.624 83.0906 319.422 83.2503 320.114 83.41L321.126 80.0563C320.38 79.8966 319.369 79.8966 318.73 79.8966ZM274.014 88.2011C274.014 93.0454 277.367 96.5589 282.531 96.5589C284.873 96.5589 286.524 96.0798 288.227 94.7489L286.577 91.9275C285.246 92.939 283.915 93.4181 282.424 93.4181C279.603 93.4181 277.58 91.3952 277.58 88.2544C277.58 85.2732 279.603 83.2503 282.424 83.0906C283.915 83.0906 285.246 83.5698 286.577 84.5812L288.227 81.7598C286.577 80.4289 284.873 79.9498 282.531 79.9498C277.367 79.8966 274.014 83.41 274.014 88.2011ZM306.38 80.216H302.866V82.2389C301.695 80.7484 300.045 79.8966 297.862 79.8966C293.337 79.8966 289.877 83.41 289.877 88.2544C289.877 93.0987 293.391 96.6121 297.862 96.6121C300.205 96.6121 301.855 95.7604 302.866 94.2698V96.2927H306.38V80.216ZM293.55 88.2011C293.55 85.3797 295.36 83.0374 298.395 83.0374C301.216 83.0374 303.239 85.22 303.239 88.2011C303.239 91.0225 301.216 93.3648 298.395 93.3648C295.36 93.2051 293.55 91.0758 293.55 88.2011ZM251.655 79.8966C246.971 79.8966 243.67 83.2503 243.67 88.2544C243.67 93.2584 247.024 96.6121 251.868 96.6121C254.21 96.6121 256.553 95.9201 258.363 94.4295L256.712 91.9275C255.382 92.939 253.731 93.5778 252.028 93.5778C249.845 93.5778 247.716 92.5663 247.184 89.7449H259.001V88.4141C259.161 83.1971 256.18 79.8966 251.655 79.8966ZM251.655 82.8777C253.838 82.8777 255.328 84.2086 255.648 86.7106H247.29C247.663 84.5812 249.153 82.8777 251.655 82.8777ZM338.586 73.8811H335.073V82.2389C333.902 80.7484 332.252 79.8966 330.069 79.8966C325.544 79.8966 322.084 83.41 322.084 88.2544C322.084 93.0987 325.597 96.6121 330.069 96.6121C332.411 96.6121 334.062 95.7604 335.073 94.2698V96.2927H338.586V73.8811ZM325.704 88.2011C325.704 85.3797 327.514 83.0374 330.548 83.0374C333.37 83.0374 335.392 85.22 335.392 88.2011C335.392 91.0225 333.37 93.3648 330.548 93.3648C327.567 93.2051 325.704 91.0758 325.704 88.2011ZM208.642 80.216H205.129V82.2389C203.957 80.7484 202.307 79.8966 200.125 79.8966C195.6 79.8966 192.139 83.41 192.139 88.2544C192.139 93.0987 195.653 96.6121 200.125 96.6121C202.467 96.6121 204.117 95.7604 205.129 94.2698V96.2927H208.642V80.216ZM195.653 88.2011C195.653 85.3797 197.463 83.0374 200.497 83.0374C203.319 83.0374 205.342 85.22 205.342 88.2011C205.342 91.0225 203.319 93.3648 200.497 93.3648C197.463 93.2051 195.653 91.0758 195.653 88.2011Z" fill="#000008"/>
<path d="M119.362 69.1277H98.3616V106.851H119.362V69.1277Z" fill="#FF5F00"/>
<path d="M99.6808 88C99.6808 80.3404 103.277 73.5319 108.809 69.1277C104.745 65.9362 99.617 64 94 64C80.7447 64 70 74.7234 70 88C70 101.255 80.7234 112 94 112C99.5957 112 104.723 110.064 108.809 106.872C103.277 102.532 99.6808 95.6596 99.6808 88Z" fill="#EB001B"/>
<path d="M147.681 88C147.681 101.255 136.957 112 123.681 112C118.085 112 112.957 110.064 108.872 106.872C114.468 102.468 118 95.6809 118 88C118 80.3404 114.404 73.5319 108.872 69.1277C112.936 65.9362 118.064 64 123.681 64C136.957 64 147.681 74.7872 147.681 88Z" fill="#F79E1B"/>
</g>
<defs>
<filter id="filter0_dd_1217_4401" x="0" y="0.000244141" width="408" height="216" filterUnits="userSpaceOnUse" color-interpolation-filters="sRGB">
<feFlood flood-opacity="0" result="BackgroundImageFix"/>
<feColorMatrix in="SourceAlpha" type="matrix" values="0 0 0 0 0 0 0 0 0 0 0 0 0 0 0 0 0 0 127 0" result="hardAlpha"/>
<feOffset dy="2"/>
<feGaussianBlur stdDeviation="10"/>
<feColorMatrix type="matrix" values="0 0 0 0 0.717647 0 0 0 0 0.717647 0 0 0 0 0.717647 0 0 0 0.08 0"/>
<feBlend mode="normal" in2="BackgroundImageFix" result="effect1_dropShadow_1217_4401"/>
<feColorMatrix in="SourceAlpha" type="matrix" values="0 0 0 0 0 0 0 0 0 0 0 0 0 0 0 0 0 0 127 0" result="hardAlpha"/>
<feOffset dy="20"/>
<feGaussianBlur stdDeviation="20"/>
<feColorMatrix type="matrix" values="0 0 0 0 0.717647 0 0 0 0 0.717647 0 0 0 0 0.717647 0 0 0 0.08 0"/>
<feBlend mode="normal" in2="effect1_dropShadow_1217_4401" result="effect2_dropShadow_1217_4401"/>
<feBlend mode="normal" in="SourceGraphic" in2="effect2_dropShadow_1217_4401" result="shape"/>
</filter>
</defs>
</svg>
