<svg width="408" height="214" viewBox="0 0 408 214" fill="none" xmlns="http://www.w3.org/2000/svg">
<g filter="url(#filter0_dd_1295_3286)">
<rect x="40.5" y="20.8083" width="327" height="131.825" rx="24.5" stroke="#D6DCE5"/>
<path fill-rule="evenodd" clip-rule="evenodd" d="M105.219 97.0744C105.071 97.2031 104.886 97.2828 104.691 97.3026C104.495 97.3224 104.298 97.2812 104.127 97.1848C102.594 95.9089 102.316 95.3201 101.481 94.1055C98.9419 96.69 97.1466 97.4629 93.8628 97.4629C89.9738 97.4629 86.9476 95.0624 86.9476 90.2614C86.9476 86.5114 88.9923 83.9637 91.8549 82.7124C94.3618 81.6123 97.8623 81.4119 100.541 81.1093V80.5123C100.541 79.4122 100.627 78.1118 99.9806 77.1589C99.4163 76.3083 98.3448 75.9607 97.3879 75.9607C95.6254 75.9607 94.055 76.8645 93.6706 78.7334C93.6469 78.9454 93.5539 79.1437 93.4061 79.2975C93.2582 79.4513 93.0637 79.552 92.8528 79.584L88.4116 79.0973C88.302 79.0816 88.1967 79.0438 88.102 78.9862C88.0074 78.9285 87.9255 78.8523 87.8613 78.762C87.797 78.6718 87.7518 78.5694 87.7283 78.4611C87.7048 78.3529 87.7036 78.241 87.7246 78.1322C88.7511 72.7015 93.6584 71.0616 98.0545 71.0616C100.304 71.0616 103.24 71.6587 105.007 73.3599C107.252 75.4618 107.051 78.2672 107.051 81.3138V88.5071C107.051 90.6745 107.951 91.6232 108.797 92.7887C109.092 93.1976 109.157 93.7088 108.797 94.0155C107.853 94.8048 106.176 96.2606 105.256 97.0826L105.219 97.0744ZM100.561 85.8121C100.561 87.6115 100.602 89.1123 99.6984 90.7195C98.9623 92.0199 97.7969 92.8214 96.4964 92.8214C94.7257 92.8214 93.6911 91.4719 93.6911 89.4681C93.6911 85.5341 97.2203 84.8184 100.561 84.8184V85.8203V85.8121Z" fill="#232F3E"/>
<path fill-rule="evenodd" clip-rule="evenodd" d="M117.872 96.8944H113.255C113.048 96.8837 112.851 96.799 112.701 96.6556C112.551 96.5123 112.457 96.3199 112.437 96.1134V72.3947C112.444 72.1662 112.541 71.9497 112.706 71.7915C112.871 71.6333 113.092 71.5459 113.32 71.5482H117.626C117.84 71.56 118.041 71.6499 118.192 71.8008C118.343 71.9517 118.433 72.153 118.444 72.3661V75.4618H118.53C119.651 72.4642 121.765 71.0697 124.611 71.0697C127.457 71.0697 129.31 72.4642 130.606 75.4618C131.031 74.3288 131.75 73.3293 132.689 72.5657C133.628 71.8022 134.753 71.3022 135.949 71.117C137.145 70.9318 138.368 71.068 139.494 71.5117C140.62 71.9554 141.607 72.6907 142.355 73.642C143.823 75.6376 143.521 78.5493 143.521 81.0766V96.0398C143.519 96.1545 143.494 96.2677 143.448 96.3728C143.402 96.478 143.335 96.573 143.253 96.6524C143.17 96.7318 143.072 96.7941 142.965 96.8356C142.858 96.8772 142.744 96.8972 142.629 96.8944H138.012C137.793 96.883 137.587 96.7888 137.435 96.6308C137.283 96.4728 137.197 96.263 137.194 96.0438V83.473C137.194 82.4751 137.28 79.9806 137.063 79.0318C136.72 77.437 135.685 76.9871 134.348 76.9871C133.748 77.0055 133.167 77.1992 132.677 77.5445C132.186 77.8898 131.807 78.3713 131.588 78.9296C131.113 80.1319 131.154 82.1234 131.154 83.473V96.0398C131.152 96.1541 131.128 96.267 131.082 96.3719C131.036 96.4767 130.97 96.5716 130.888 96.6509C130.805 96.7303 130.708 96.7927 130.601 96.8344C130.495 96.8762 130.381 96.8966 130.267 96.8944H125.638C125.419 96.8821 125.213 96.7875 125.062 96.6298C124.91 96.472 124.824 96.2627 124.82 96.0438V83.473C124.82 80.8271 125.229 76.9299 121.957 76.9299C118.686 76.9299 118.767 80.7208 118.767 83.473V96.0398C118.765 96.1545 118.741 96.2677 118.695 96.3728C118.649 96.478 118.582 96.573 118.499 96.6524C118.417 96.7318 118.319 96.7941 118.212 96.8356C118.105 96.8772 117.991 96.8972 117.876 96.8944" fill="#232F3E"/>
<path fill-rule="evenodd" clip-rule="evenodd" d="M169.345 92.7724C168.499 91.6069 167.599 90.6581 167.599 88.4948V81.2974C167.599 78.2467 167.816 75.4455 165.554 73.3435C163.784 71.6423 160.848 71.0453 158.602 71.0453C154.206 71.0453 149.299 72.681 148.269 78.1159C148.247 78.2252 148.248 78.3379 148.271 78.4468C148.295 78.5558 148.34 78.6589 148.405 78.7496C148.47 78.8404 148.552 78.917 148.648 78.9746C148.743 79.0323 148.849 79.0699 148.96 79.0851L153.438 79.5676C153.648 79.535 153.842 79.4341 153.99 79.2804C154.138 79.1267 154.231 78.9288 154.255 78.717C154.644 76.8481 156.206 75.9444 157.969 75.9444C158.921 75.9444 160.013 76.2961 160.561 77.1467C161.212 78.0954 161.126 79.3959 161.126 80.4959V81.0807C158.447 81.3792 154.942 81.5796 152.44 82.6797C149.544 83.931 147.512 86.4787 147.512 90.2328C147.512 95.0297 150.538 97.4302 154.427 97.4302C157.699 97.4302 159.506 96.6573 162.042 94.0728C162.884 95.2996 163.158 95.8762 164.692 97.1521C164.863 97.2479 165.059 97.2891 165.254 97.2701C165.449 97.2511 165.634 97.1728 165.783 97.0458C166.704 96.2279 168.38 94.768 169.325 93.9787C169.722 93.6966 169.656 93.1977 169.345 92.7724ZM160.267 90.699C159.535 91.9954 158.365 92.7969 157.069 92.7969C155.298 92.7969 154.264 91.4474 154.264 89.4477C154.264 85.5095 157.793 84.798 161.134 84.798V85.7958C161.134 87.5992 161.167 89.096 160.267 90.699Z" fill="#232F3E"/>
<path fill-rule="evenodd" clip-rule="evenodd" d="M173.255 75.7031V72.3129C173.25 72.1986 173.268 72.0844 173.31 71.9777C173.351 71.8711 173.415 71.7743 173.496 71.6938C173.578 71.6132 173.675 71.5506 173.782 71.5101C173.889 71.4695 174.003 71.4518 174.118 71.4583H189.302C189.416 71.4544 189.53 71.4737 189.636 71.515C189.743 71.5563 189.84 71.6188 189.922 71.6987C190.004 71.7785 190.068 71.8741 190.112 71.9797C190.156 72.0853 190.178 72.1986 190.177 72.3129V75.2205C190.177 75.7072 189.768 76.3451 189.036 77.3511L181.168 88.5807C184.088 88.5111 187.175 88.9487 189.829 90.4414C190.07 90.5697 190.273 90.7596 190.416 90.9916C190.56 91.2236 190.64 91.4895 190.647 91.7622V95.3936C190.647 95.8926 190.103 96.4692 189.527 96.1706C187.044 94.8948 184.293 94.2316 181.502 94.2366C178.711 94.2416 175.962 94.9146 173.484 96.1993C172.956 96.4814 172.404 95.913 172.404 95.4141V91.9585C172.356 91.144 172.553 90.3336 172.969 89.6316L182.084 76.5455H174.134C174.02 76.5499 173.905 76.531 173.798 76.49C173.691 76.4489 173.593 76.3865 173.511 76.3066C173.429 76.2267 173.364 76.1309 173.32 76.025C173.276 75.9192 173.254 75.8055 173.255 75.6908" fill="#232F3E"/>
<path fill-rule="evenodd" clip-rule="evenodd" d="M203.288 75.8748C199.881 75.8748 199.664 80.5122 199.664 83.4075C199.664 86.3028 199.623 92.486 203.243 92.486C206.862 92.486 206.997 87.4969 206.997 84.4544C206.997 82.4587 206.911 80.0623 206.305 78.1689C205.786 76.5332 204.752 75.8748 203.288 75.8748ZM203.243 71.0329C210.1 71.0329 213.81 76.9217 213.81 84.4053C213.81 91.6395 209.72 97.377 203.243 97.377C196.515 97.377 192.851 91.4882 192.851 84.1559C192.851 76.8235 196.56 71.0329 203.243 71.0329Z" fill="#232F3E"/>
<path fill-rule="evenodd" clip-rule="evenodd" d="M222.749 96.8454H218.144C217.926 96.834 217.719 96.7397 217.567 96.5817C217.415 96.4237 217.329 96.2139 217.327 95.9948V72.2761C217.35 72.0589 217.454 71.8585 217.619 71.7146C217.783 71.5706 217.996 71.4937 218.214 71.4991H222.5C222.69 71.5052 222.872 71.5733 223.02 71.6929C223.168 71.8125 223.272 71.9771 223.318 72.1616V75.7889H223.407C224.7 72.546 226.511 71.0002 229.701 71.0002C231.77 71.0002 233.791 71.7486 235.095 73.7933C236.301 75.6908 236.301 78.8846 236.301 81.1788V96.1011C236.269 96.3116 236.161 96.5031 235.998 96.64C235.834 96.7769 235.627 96.8499 235.414 96.8454H230.768C230.567 96.8367 230.374 96.7575 230.225 96.6215C230.075 96.4854 229.978 96.3013 229.951 96.1011V83.2235C229.951 80.6308 230.253 76.8358 227.059 76.8358C226.479 76.8627 225.918 77.0558 225.444 77.3922C224.97 77.7286 224.602 78.1941 224.385 78.7333C223.739 80.181 223.653 81.6286 223.653 83.2317V95.9948C223.644 96.2262 223.545 96.445 223.377 96.6041C223.209 96.7632 222.985 96.8498 222.753 96.8454" fill="#232F3E"/>
<path fill-rule="evenodd" clip-rule="evenodd" d="M260.339 75.1019C257.991 75.1205 255.713 75.9028 253.849 77.3307V90.8258C255.916 92.3797 258.046 93.1554 260.241 93.1526C264.696 93.1526 266.923 90.1537 266.923 84.1559C266.923 78.1581 264.728 75.1387 260.339 75.0978V75.1019ZM253.51 74.4722C254.67 73.4487 255.997 72.6301 257.432 72.0512C258.787 71.5109 260.233 71.2333 261.693 71.2333C263.143 71.2063 264.582 71.4966 265.909 72.0839C267.159 72.6571 268.254 73.5208 269.103 74.603C270.027 75.8019 270.71 77.1684 271.115 78.627C271.605 80.3557 271.842 82.1465 271.818 83.9433C271.84 85.7783 271.587 87.6062 271.066 89.3658C270.629 90.859 269.915 92.2562 268.96 93.4839C268.073 94.6001 266.946 95.5029 265.664 96.1256C264.316 96.7512 262.843 97.0604 261.357 97.0294C258.581 97.0753 255.894 96.0502 253.853 94.1668V105.519C253.873 105.651 253.861 105.785 253.819 105.912C253.777 106.038 253.706 106.153 253.612 106.247C253.518 106.341 253.403 106.412 253.277 106.454C253.15 106.496 253.016 106.507 252.884 106.488H250.022C249.89 106.507 249.755 106.496 249.629 106.454C249.503 106.412 249.388 106.341 249.294 106.247C249.2 106.153 249.129 106.038 249.087 105.912C249.045 105.785 249.033 105.651 249.052 105.519V72.9223C249.034 72.7907 249.046 72.6567 249.089 72.5307C249.131 72.4048 249.202 72.2903 249.296 72.1964C249.39 72.1024 249.504 72.0316 249.63 71.9894C249.756 71.9471 249.89 71.9347 250.022 71.9531H252.152C252.29 71.9402 252.428 71.9554 252.56 71.9976C252.692 72.0399 252.813 72.1084 252.918 72.199C253.022 72.2896 253.107 72.4004 253.167 72.5247C253.227 72.649 253.262 72.7842 253.269 72.9223L253.51 74.4722Z" fill="#232F3E"/>
<path fill-rule="evenodd" clip-rule="evenodd" d="M283.898 93.5207C285.04 93.5062 286.17 93.2946 287.239 92.895C288.439 92.4536 289.566 91.8332 290.58 91.0548V86.1107C289.741 85.9133 288.892 85.7605 288.037 85.6527C287.178 85.5401 286.314 85.4827 285.448 85.4809C281.795 85.4809 279.97 86.8863 279.972 89.6971C279.972 90.9239 280.312 91.8686 280.991 92.5311C281.67 93.1936 282.639 93.5234 283.898 93.5207ZM278.23 76.1734L277.866 76.2961C277.735 76.3427 277.597 76.3676 277.457 76.3697C277.048 76.3697 276.828 76.0793 276.828 75.4945V74.1982C276.797 73.8707 276.865 73.5415 277.024 73.2535C277.233 73.0192 277.499 72.843 277.797 72.7424C279.027 72.2426 280.31 71.8845 281.62 71.675C283.122 71.4031 284.646 71.2662 286.172 71.2661C289.239 71.2661 291.499 71.8945 292.952 73.1513C294.405 74.4081 295.133 76.3615 295.136 79.0114V95.5572C295.154 95.6888 295.142 95.8229 295.1 95.9488C295.057 96.0748 294.987 96.1892 294.893 96.2831C294.799 96.3771 294.684 96.4479 294.558 96.4902C294.432 96.5324 294.298 96.5448 294.167 96.5264H292.081C291.95 96.5393 291.818 96.5255 291.693 96.4856C291.567 96.4458 291.451 96.3809 291.352 96.2948C291.252 96.2087 291.172 96.1033 291.114 95.9849C291.057 95.8665 291.024 95.7377 291.018 95.6063L290.773 94.0074C289.632 94.9957 288.33 95.7813 286.924 96.3302C285.591 96.8646 284.169 97.1421 282.733 97.148C280.41 97.148 278.57 96.4937 277.212 95.1851C275.854 93.8765 275.173 92.1249 275.167 89.9302C275.167 87.5747 276.007 85.6936 277.686 84.2868C279.366 82.88 281.626 82.178 284.467 82.1807C286.526 82.2124 288.574 82.4869 290.568 82.9986V79.8171C290.568 78.0722 290.181 76.8454 289.407 76.1366C288.632 75.4278 287.276 75.072 285.338 75.0692C282.928 75.092 280.534 75.4639 278.23 76.1734Z" fill="#232F3E"/>
<path fill-rule="evenodd" clip-rule="evenodd" d="M310.897 100.816C310.021 103.044 309.011 104.642 307.866 105.613C306.721 106.584 305.222 107.068 303.368 107.065C302.437 107.077 301.508 106.963 300.608 106.725C300.305 106.661 300.032 106.498 299.831 106.263C299.647 105.967 299.562 105.621 299.589 105.274V104.014C299.589 103.401 299.831 103.094 300.317 103.094C300.562 103.105 300.806 103.137 301.045 103.188C301.476 103.262 301.913 103.295 302.35 103.286C303.378 103.351 304.395 103.042 305.212 102.415C305.891 101.834 306.505 100.768 307.053 99.2172L307.973 96.7635L298.641 73.6951C298.465 73.3278 298.352 72.934 298.305 72.5296C298.305 72.1452 298.53 71.9489 298.98 71.9489H301.888C302.26 71.9132 302.634 71.9978 302.955 72.1902C303.228 72.4956 303.426 72.8613 303.532 73.2575L310.316 92.0484L316.859 73.2575C316.964 72.8613 317.162 72.4956 317.436 72.1902C317.756 71.9978 318.13 71.9132 318.503 71.9489H321.214C321.668 71.9489 321.893 72.1452 321.893 72.5296C321.844 72.934 321.73 73.3277 321.554 73.6951L310.897 100.816Z" fill="#232F3E"/>
<path fill-rule="evenodd" clip-rule="evenodd" d="M179.52 106.194C170.846 112.594 158.255 116.008 147.442 116.008C132.977 116.082 119.006 110.752 108.266 101.062C107.448 100.33 108.176 99.3276 109.153 99.8961C120.309 106.386 134.099 110.295 148.354 110.295C158.63 110.239 168.793 108.155 178.26 104.161C179.724 103.54 180.955 105.126 179.52 106.206M183.127 102.088C184.239 103.507 181.9 109.363 180.849 111.976C180.53 112.765 181.213 113.084 181.929 112.487C186.578 108.594 187.78 100.44 186.836 99.2622C185.891 98.0845 177.757 97.0866 172.793 100.575C172.028 101.111 172.159 101.851 173.009 101.749C175.803 101.413 182.027 100.665 183.135 102.088" fill="#FF9900"/>
</g>
<defs>
<filter id="filter0_dd_1295_3286" x="0" y="0.308304" width="408" height="212.825" filterUnits="userSpaceOnUse" color-interpolation-filters="sRGB">
<feFlood flood-opacity="0" result="BackgroundImageFix"/>
<feColorMatrix in="SourceAlpha" type="matrix" values="0 0 0 0 0 0 0 0 0 0 0 0 0 0 0 0 0 0 127 0" result="hardAlpha"/>
<feOffset dy="2"/>
<feGaussianBlur stdDeviation="10"/>
<feColorMatrix type="matrix" values="0 0 0 0 0.717647 0 0 0 0 0.717647 0 0 0 0 0.717647 0 0 0 0.08 0"/>
<feBlend mode="normal" in2="BackgroundImageFix" result="effect1_dropShadow_1295_3286"/>
<feColorMatrix in="SourceAlpha" type="matrix" values="0 0 0 0 0 0 0 0 0 0 0 0 0 0 0 0 0 0 127 0" result="hardAlpha"/>
<feOffset dy="20"/>
<feGaussianBlur stdDeviation="20"/>
<feColorMatrix type="matrix" values="0 0 0 0 0.717647 0 0 0 0 0.717647 0 0 0 0 0.717647 0 0 0 0.08 0"/>
<feBlend mode="normal" in2="effect1_dropShadow_1295_3286" result="effect2_dropShadow_1295_3286"/>
<feBlend mode="normal" in="SourceGraphic" in2="effect2_dropShadow_1295_3286" result="shape"/>
</filter>
</defs>
</svg>
